:SAMPLES-PER-SECOND 30
:FULLY-SPECIFIED
:DEGREES
448
root  63.9998 39.1673 8.64736 178.437 -47.9205 176.637
RightUpLeg  4.73603 -11.3942 -4.43788
RightLeg  10.8725 -11.4857 0.580099
RightFoot  -9.50047 -0.0255771 -2.42822
RightToes  9.54606e-009 0 -3.6325e-017
Spine  11.7934 1.0226 10.4601
Spine1  6.66895 3.78318 -6.62181
HEad  28.0276 9.86127 -52.0328
LeftShoulder1  -0.4699 4.8119 -29.7439
LeftArm  -14.9336 10.3923 -43.3343
LeftForeArm  25.3227 -36.3334 -6.72003
LeftHand  -0.0299895 5.34424 1.34758
RightShoulder  -0.739256 -5.83475 25.0333
RightArm  -0.662328 6.0774 45.8652
RightForeArm  20.9183 60.9043 18.5879
RightHand  -0.31726 5.96179 -3.57201
LeftUpLeg  -9.74743 2.33576 -3.84394
LeftLeg  3.51039 1.24649 -1.17903
LeftFoot  7.60343 0.313041 -2.58256
LeftToes  -8.26734e-010 9.74065e-011 1.64617e-011
449
root  63.482 39.0899 8.00611 177.045 -49.3402 178.216
RightUpLeg  7.13853 -10.9739 -3.4363
RightLeg  9.81521 -13.3678 1.0867
RightFoot  -10.7529 -0.062232 -2.17181
RightToes  9.54606e-009 0 -3.6325e-017
Spine  11.2289 1.22368 8.97005
Spine1  6.37786 3.4861 -5.30184
HEad  29.6477 10.0622 -50.3348
LeftShoulder1  -0.299156 4.33985 -29.608
LeftArm  -13.91 11.209 -44.0284
LeftForeArm  24.1582 -34.0816 -6.19562
LeftHand  -0.00686591 6.78307 2.1341
RightShoulder  -0.860631 -6.15982 25.8034
RightArm  2.20845 6.66614 46.1055
RightForeArm  21.1721 60.7567 18.4473
RightHand  -0.311046 6.12217 -3.46569
LeftUpLeg  -9.18412 3.14019 -3.54459
LeftLeg  3.12302 5.45352 -1.6025
LeftFoot  11.3028 -1.44355 7.11639
LeftToes  -8.26734e-010 9.74065e-011 1.64617e-011
450
root  63.1146 38.9563 7.19178 175.212 -49.2327 179.007
RightUpLeg  9.55564 -10.5862 -2.67448
RightLeg  10.6038 -13.7665 0.78803
RightFoot  -12.7791 -0.107431 -1.77777
RightToes  9.54606e-009 0 -3.6325e-017
Spine  11.409 2.08393 5.07288
Spine1  6.78898 3.50132 -2.61032
HEad  30.0644 10.5989 -48.6774
LeftShoulder1  -0.445066 4.73014 -30.1548
LeftArm  -11.2995 10.0125 -43.9062
LeftForeArm  21.7549 -29.9879 -5.30878
LeftHand  0.0308615 7.39774 3.76035
RightShoulder  -0.825525 -6.02918 26.0887
RightArm  5.90082 7.35579 47.5028
RightForeArm  20.9618 58.573 16.7263
RightHand  -0.287179 5.5859 -3.35977
LeftUpLeg  -9.06094 6.31356 -2.84131
LeftLeg  8.3431 2.08023 -0.990042
LeftFoot  7.92691 -1.68756 9.55633
LeftToes  -8.26734e-010 9.74065e-011 1.64617e-011
451
root  62.836 38.8109 6.3731 175.716 -48.9029 177.344
RightUpLeg  9.94245 -12.9783 -4.05817
RightLeg  14.4709 -10.6788 -0.306274
RightFoot  -15.3523 -0.113485 -0.347631
RightToes  9.54606e-009 0 -3.6325e-017
Spine  11.6772 3.22127 0.491417
Spine1  6.51785 4.02264 -1.25007
HEad  30.5123 10.8723 -46.4621
LeftShoulder1  -0.47981 4.82534 -30.1498
LeftArm  -7.39347 7.65929 -43.3435
LeftForeArm  19.1223 -24.3956 -4.34443
LeftHand  -0.0105933 6.69454 2.35066
RightShoulder  -0.804024 -5.88472 27.1392
RightArm  9.27682 6.78276 49.2341
RightForeArm  20.6158 54.7173 14.2693
RightHand  -0.34906 6.69257 -3.68483
LeftUpLeg  -9.43068 10.4826 -3.37206
LeftLeg  13.2461 -1.84037 -0.794939
LeftFoot  5.06615 -1.20902 8.17104
LeftToes  -8.26734e-010 9.74065e-011 1.64617e-011
452
root  62.5233 38.7696 5.81278 176.951 -48.9174 176.366
RightUpLeg  8.37594 -18.2646 -5.80488
RightLeg  19.1883 -4.33501 -0.980542
RightFoot  -16.1864 -0.00380081 2.62773
RightToes  9.54606e-009 0 -3.6325e-017
Spine  11.4111 3.83163 -0.465232
Spine1  5.6138 4.97517 -3.2181
HEad  30.6129 11.3515 -45.2197
LeftShoulder1  -0.393181 4.59849 -29.7742
LeftArm  -6.08931 5.6472 -43.2741
LeftForeArm  19.6703 -18.9631 -4.15332
LeftHand  -0.032815 7.41276 0.317229
RightShoulder  -0.853815 -6.0015 27.5921
RightArm  12.431 5.59419 52.0903
RightForeArm  19.5367 48.1452 11.1103
RightHand  -0.452558 6.58753 -4.71968
LeftUpLeg  -10.034 11.1659 -3.67136
LeftLeg  15.3112 -3.27082 -0.927683
LeftFoot  3.69946 -1.05364 7.80107
LeftToes  -8.26734e-010 9.74065e-011 1.64617e-011
453
root  62.2364 38.7667 5.46277 176.935 -49.585 176.805
RightUpLeg  6.35031 -21.4834 -6.6492
RightLeg  24.4652 -0.57609 -0.640101
RightFoot  -15.015 0.0745067 5.48401
RightToes  9.54606e-009 0 -3.6325e-017
Spine  12.2033 3.23104 1.67041
Spine1  4.12169 5.32515 -7.29144
HEad  30.1306 12.0381 -44.4937
LeftShoulder1  -0.40064 4.63264 -29.337
LeftArm  -8.86508 5.24861 -43.42
LeftForeArm  24.6026 -16.0368 -4.44876
LeftHand  -0.0509276 7.41912 -0.55339
RightShoulder  -0.758825 -5.73392 27.3805
RightArm  17.3263 5.13738 55.5603
RightForeArm  18.7546 39.7765 8.13265
RightHand  -0.363854 5.54082 -4.17624
LeftUpLeg  -10.1997 9.72411 -3.28324
LeftLeg  16.3277 -2.85326 -0.70411
LeftFoot  2.81221 -0.959781 7.5814
LeftToes  -8.26734e-010 9.74065e-011 1.64617e-011
454
root  62.0662 38.889 5.05329 176.857 -49.6548 177.043
RightUpLeg  4.70352 -21.9456 -7.26889
RightLeg  28.166 -0.956563 -0.806952
RightFoot  -13.7607 0.0352188 6.0428
RightToes  9.54606e-009 0 -3.6325e-017
Spine  12.5519 3.41888 1.99289
Spine1  3.62024 5.81566 -8.8985
HEad  28.2516 13.162 -45.5935
LeftShoulder1  -0.438087 4.71923 -29.8701
LeftArm  -9.52947 5.71964 -43.1346
LeftForeArm  26.0159 -15.5534 -4.42359
LeftHand  -0.0546957 8.33733 -0.366858
RightShoulder  -0.655501 -5.43855 27.1871
RightArm  25.539 6.02021 57.6767
RightForeArm  13.9778 31.1716 6.01813
RightHand  -0.288409 5.80464 -3.33533
LeftUpLeg  -9.38927 9.93618 -2.61224
LeftLeg  15.8735 -3.12818 -0.934753
LeftFoot  2.70157 -0.893991 7.117
LeftToes  -8.26734e-010 9.74065e-011 1.64617e-011
455
root  61.9398 39.0515 4.58526 176.77 -50.0849 177.391
RightUpLeg  3.3488 -22.1643 -7.97157
RightLeg  30.7636 -2.86825 -2.07768
RightFoot  -13.7341 0.0283556 5.81899
RightToes  9.54606e-009 0 -3.6325e-017
Spine  12.1294 4.12713 1.36587
Spine1  4.13907 6.42828 -8.47033
HEad  26.8192 13.4451 -47.0443
LeftShoulder1  -0.515706 4.90334 -30.72
LeftArm  -8.62947 6.26885 -43.1515
LeftForeArm  24.7636 -16.0711 -4.49172
LeftHand  -0.0387212 8.55618 0.266445
RightShoulder  -0.687159 -5.51002 27.5771
RightArm  34.1346 6.60533 58.2429
RightForeArm  11.2088 24.4688 4.74524
RightHand  -0.111688 6.32251 -1.46089
LeftUpLeg  -8.46487 10.0276 -1.74856
LeftLeg  14.9827 -3.62579 -1.27805
LeftFoot  2.99062 -0.860547 6.69156
LeftToes  -8.26734e-010 9.74065e-011 1.64617e-011
456
root  61.8554 39.1898 4.15424 176.074 -51.3471 178.599
RightUpLeg  2.6707 -22.1077 -8.4454
RightLeg  31.5105 -3.87827 -2.80013
RightFoot  -13.03 0.000141228 6.00398
RightToes  9.54606e-009 0 -3.6325e-017
Spine  11.2944 4.4184 1.72928
Spine1  5.22426 6.73884 -8.05617
HEad  25.8865 13.2703 -48.2263
LeftShoulder1  -0.521524 4.89559 -31.3382
LeftArm  -6.71779 7.06796 -43.3253
LeftForeArm  22.0028 -17.3249 -4.5384
LeftHand  -0.0321546 7.62899 0.370269
RightShoulder  -0.649952 -5.41305 27.34
RightArm  36.5449 5.51512 58.1874
RightForeArm  12.038 20.1554 5.10906
RightHand  -0.17835 4.88813 -2.29804
LeftUpLeg  -7.86505 9.72062 -0.446679
LeftLeg  14.2335 -4.71961 -1.686
LeftFoot  3.196 -0.814227 6.22521
LeftToes  -8.26734e-010 9.74065e-011 1.64617e-011
457
root  61.8219 39.2988 3.76284 175.885 -53.291 179.343
RightUpLeg  2.3427 -20.9928 -9.42548
RightLeg  30.8734 -3.11987 -2.25605
RightFoot  -12.2273 -0.0332611 6.49059
RightToes  9.54606e-009 0 -3.6325e-017
Spine  9.85685 4.09369 2.50444
Spine1  7.01384 6.74903 -8.95838
HEad  25.3289 12.801 -48.234
LeftShoulder1  -0.608389 5.15344 -30.7197
LeftArm  -6.04041 7.54106 -44.3818
LeftForeArm  20.0277 -18.5512 -4.3648
LeftHand  -0.0285526 8.98469 0.64051
RightShoulder  -0.578075 -5.18441 27.5923
RightArm  31.0926 4.09615 57.4791
RightForeArm  17.146 16.2028 6.9636
RightHand  -0.141304 4.74657 -1.91487
LeftUpLeg  -7.76548 8.59921 0.230726
LeftLeg  13.6371 -5.37263 -1.84143
LeftFoot  3.61975 -0.802132 5.93596
LeftToes  -8.26734e-010 9.74065e-011 1.64617e-011
458
root  61.8504 39.3549 3.36144 176.003 -55.3937 179.775
RightUpLeg  2.24688 -17.801 -10.4324
RightLeg  29.5424 -1.33346 -1.05337
RightFoot  -11.7093 -0.0549638 7.60068
RightToes  9.54606e-009 0 -3.6325e-017
Spine  8.85224 3.94974 2.62993
Spine1  7.9033 6.69724 -9.39014
HEad  25.4915 12.2918 -48.0281
LeftShoulder1  -0.620991 5.20176 -30.3672
LeftArm  -5.18626 8.28168 -44.6018
LeftForeArm  20.4928 -20.4454 -4.02834
LeftHand  -0.0518618 7.85592 -0.480716
RightShoulder  -0.66454 -5.38558 28.6084
RightArm  23.7627 2.5654 55.52
RightForeArm  20.4493 12.4679 8.15466
RightHand  -0.139018 4.86619 -1.84613
LeftUpLeg  -7.81492 7.79051 0.784345
LeftLeg  12.974 -6.69602 -2.13229
LeftFoot  3.91173 -0.771787 5.5814
LeftToes  -8.26734e-010 9.74065e-011 1.64617e-011
459
root  61.9347 39.3799 2.94759 175.913 -57.4939 -179.962
RightUpLeg  2.70645 -13.1802 -11.4968
RightLeg  28.3068 0.388714 -0.00228506
RightFoot  -11.3448 -0.0767594 8.16744
RightToes  9.54606e-009 0 -3.6325e-017
Spine  8.24378 3.96419 1.65959
Spine1  8.50105 6.26219 -7.9757
HEad  25.9482 11.8277 -48.3592
LeftShoulder1  -0.768193 5.55218 -31.3608
LeftArm  -4.47627 8.63824 -43.8086
LeftForeArm  21.2532 -22.0906 -3.84866
LeftHand  -0.0645419 7.11521 -1.63979
RightShoulder  -0.618169 -5.27549 28.1008
RightArm  18.4634 0.396405 53.9129
RightForeArm  21.2981 10.3761 8.01845
RightHand  -0.0515979 3.17262 -0.948105
LeftUpLeg  -7.56217 7.50035 1.35552
LeftLeg  12.3173 -8.49522 -2.52592
LeftFoot  4.06799 -0.744878 5.31928
LeftToes  -8.26734e-010 9.74065e-011 1.64617e-011
460
root  62.1096 39.3591 2.55192 176.115 -59.608 -179.95
RightUpLeg  3.0834 -8.46214 -12.5216
RightLeg  27.6208 1.65801 0.717297
RightFoot  -10.92 -0.104865 8.29875
RightToes  9.54606e-009 0 -3.6325e-017
Spine  8.09379 3.89167 1.58353
Spine1  8.2967 6.13752 -8.16399
HEad  27.2214 10.9484 -47.8254
LeftShoulder1  -0.780912 5.59243 -31.2181
LeftArm  -4.15989 8.97809 -43.568
LeftForeArm  20.9354 -23.1642 -3.90177
LeftHand  -0.0627704 8.06238 -0.751176
RightShoulder  -0.767689 -5.65437 29.058
RightArm  15.333 -1.14573 51.5358
RightForeArm  21.0047 8.91595 7.55463
RightHand  -0.0662842 3.20468 -1.13978
LeftUpLeg  -7.74527 7.35353 1.73502
LeftLeg  11.9607 -10.1661 -2.87579
LeftFoot  4.19953 -0.737126 5.21085
LeftToes  -8.26734e-010 9.74065e-011 1.64617e-011
461
root  62.3821 39.2907 2.12966 176.413 -60.9166 179.887
RightUpLeg  3.09938 -3.279 -13.1942
RightLeg  28.1149 2.77299 1.38024
RightFoot  -10.1882 -0.154095 8.39857
RightToes  9.54606e-009 0 -3.6325e-017
Spine  7.78151 4.25698 0.849948
Spine1  8.42096 6.14671 -7.1205
HEad  28.6711 9.83839 -47.7567
LeftShoulder1  -0.861841 5.76377 -31.972
LeftArm  -4.00237 8.92932 -42.5455
LeftForeArm  20.5596 -24.2136 -4.09347
LeftHand  -0.0601471 7.44718 -0.994446
RightShoulder  -0.728356 -5.58776 28.2715
RightArm  12.666 -2.25437 50.6271
RightForeArm  21.6384 7.51427 6.93482
RightHand  -0.0425789 4.02017 -0.786766
LeftUpLeg  -8.1699 7.77164 2.2774
LeftLeg  12.0611 -11.6475 -3.35548
LeftFoot  4.23243 -0.755118 5.32945
LeftToes  -8.26734e-010 9.74065e-011 1.64617e-011
